<?xml version="1.0" standalone="no"?>
<svg viewBox="0 0 200 200" xmlns="http://www.w3.org/2000/svg">
  <path fill="#0B1232" d="M40.1,-68.5C49.9,-63.7,54.5,-48.9,60.4,-35.8C66.2,-22.7,73.4,-11.4,75.1,1C76.8,13.3,73.1,26.7,63.9,34C54.7,41.4,40,42.7,28.5,44.1C16.9,45.6,8.5,47.2,0.8,45.9C-7,44.6,-13.9,40.4,-25.7,39.1C-37.5,37.7,-54,39.2,-61.4,33.2C-68.8,27.2,-67.1,13.6,-62.3,2.7C-57.6,-8.1,-49.9,-16.2,-45.8,-28C-41.7,-39.8,-41.3,-55.3,-34.3,-61.7C-27.3,-68,-13.6,-65.3,0.7,-66.6C15.1,-67.8,30.2,-73.2,40.1,-68.5Z" transform="translate(100 100)" />
</svg>
